<?xml version="1.0" encoding="iso-8859-1"?>
<!-- Uploaded to: SVG Repo, www.svgrepo.com, Generator: SVG Repo Mixer Tools -->
<svg fill="#000000" height="800px" width="800px" version="1.1" id="Capa_1" xmlns="http://www.w3.org/2000/svg" xmlns:xlink="http://www.w3.org/1999/xlink" 
	 viewBox="0 0 470 470" xml:space="preserve">
<g>
	<path d="M453.963,455h-2.5V37.5c0-20.678-16.822-37.5-37.5-37.5H56.037c-20.678,0-37.5,16.822-37.5,37.5V455h-2.5
		c-4.143,0-7.5,3.358-7.5,7.5s3.357,7.5,7.5,7.5h437.926c4.143,0,7.5-3.358,7.5-7.5S458.105,455,453.963,455z M56.037,15h357.926
		c9.777,0,18.114,6.271,21.21,15H34.827C37.923,21.271,46.26,15,56.037,15z M33.537,45h402.926v410H33.537V45z"/>
	<path d="M379.161,218.609l-59.551-53.385c-0.93-0.834-2.055-1.423-3.271-1.712l-40.869-9.723c-3.241-0.769-6.581,0.642-8.229,3.542
		c-0.392,0.666-9.861,16.307-32.242,16.307c-22.382,0-31.852-15.641-32.215-16.257c-1.648-2.9-5.014-4.365-8.257-3.592
		l-40.868,9.723c-1.216,0.289-2.341,0.878-3.271,1.712l-59.552,53.385c-2.747,2.462-3.296,6.555-1.294,9.654l29.7,45.984
		c1.421,2.201,3.825,3.432,6.304,3.432c1.07,0,2.154-0.229,3.179-0.709l19.169-8.983v150.928c0,4.142,3.357,7.5,7.5,7.5h159.209
		c4.143,0,7.5-3.358,7.5-7.5V267.987l19.169,8.983c3.396,1.591,7.448,0.429,9.482-2.723l29.699-45.985
		C382.457,225.164,381.908,221.071,379.161,218.609z M341.709,260.608l-19.604-9.187v-40.323c0-4.142-3.357-7.5-7.5-7.5
		s-7.5,3.358-7.5,7.5v200.316H162.896V211.098c0-4.142-3.357-7.5-7.5-7.5s-7.5,3.358-7.5,7.5v40.323l-19.604,9.187l-22.673-35.105
		l53.365-47.84l34.152-8.125c5.749,6.97,19.035,19.099,41.864,19.099s36.114-12.129,41.864-19.099l34.151,8.125l53.365,47.84
		L341.709,260.608z"/>
	<path d="M413.963,110h-22.5V67.5c0-4.142-3.357-7.5-7.5-7.5s-7.5,3.358-7.5,7.5V110H93.537V67.5c0-4.142-3.357-7.5-7.5-7.5
		s-7.5,3.358-7.5,7.5V110h-22.5c-4.143,0-7.5,3.358-7.5,7.5s3.357,7.5,7.5,7.5h357.926c4.143,0,7.5-3.358,7.5-7.5
		S418.105,110,413.963,110z"/>
</g>
</svg>