<?xml version="1.0" encoding="UTF-8"?>
<!-- Uploaded to: SVG Find, www.svgrepo.com, Generator: SVG Find Mixer Tools -->
<svg style="" fill="white" width="100px" height="100px" version="1.1" viewBox="144 144 512 512" xmlns="http://www.w3.org/2000/svg">
 <g color="white">
  <path d="m400 418.51c0.93359 0 1.875-0.25 2.707-0.74219 0.40234-0.23828 9.8359-5.8945 19.398-14.672 5.7188-5.2539 10.289-10.555 13.602-15.77 4.3828-6.8906 6.6133-13.68 6.6133-20.191 0-13.969-11.121-25.328-24.773-25.328-4.7734 0-9.4102 1.3984-13.402 4.0312-1.5 0.99609-2.8828 2.1406-4.1328 3.4258-1.2461-1.2852-2.6328-2.4297-4.1328-3.4258-3.9922-2.6445-8.6289-4.0312-13.402-4.0312-13.664 0-24.773 11.359-24.773 25.328 0 6.5117 2.2305 13.301 6.6133 20.191 3.3125 5.2031 7.8984 10.516 13.602 15.77 9.5469 8.793 18.992 14.445 19.398 14.672 0.80469 0.49219 1.75 0.74219 2.6836 0.74219zm-31.742-51.375c0-8.1367 6.375-14.75 14.195-14.75 5.4531 0 10.34 3.1875 12.746 8.3008 0.86719 1.8516 2.7344 3.0352 4.7852 3.0352 2.0547 0 3.918-1.1836 4.7852-3.0352 2.4062-5.125 7.293-8.3008 12.746-8.3008 7.8359 0 14.195 6.6133 14.195 14.75 0 10.453-9.0703 21.02-16.676 28.051-5.832 5.3789-11.738 9.5586-15.062 11.766-3.3242-2.2031-9.2305-6.3867-15.062-11.766-7.582-7.0273-16.652-17.598-16.652-28.051z"/>
  <path d="m314.26 403.74c2.0664 2.0664 5.4141 2.0664 7.4805 0l9.4844-9.4844v32.195c0 2.9219 2.3672 5.2891 5.2891 5.2891s5.2891-2.3672 5.2891-5.2891v-73.832c0-2.9219-2.3672-5.2891-5.2891-5.2891s-5.2891 2.3672-5.2891 5.2891v26.688l-13.227 13.227-37.48-37.496 51.992-51.992c3.9922-3.9922 9.3086-6.1953 14.965-6.1953h18.539c1.0977 7.1797 4.4336 13.793 9.6719 19.02 6.5 6.5 15.125 10.078 24.309 10.078s17.82-3.5781 24.309-10.078c5.2266-5.2266 8.5664-11.852 9.6719-19.02l18.543-0.003906c5.6562 0 10.969 2.2031 14.965 6.1953l51.992 51.992-37.484 37.484-13.227-13.227 0.003906-32.191c0-2.9219-2.3672-5.2891-5.2891-5.2891s-5.2891 2.3672-5.2891 5.2891v60.836c0 2.9219 2.3672 5.2891 5.2891 5.2891s5.2891-2.3672 5.2891-5.2891v-13.68l9.4844 9.4844c1.0312 1.0312 2.3789 1.5508 3.7422 1.5508 1.3594 0 2.707-0.51562 3.7422-1.5508l44.965-44.965c2.0664-2.0664 2.0664-5.4141 0-7.4805l-55.734-55.734c-2.9609-2.9609-6.4219-5.2773-10.305-6.8789-3.8672-1.5977-7.9609-2.418-12.141-2.418h-47.23v-4.8984c0-2.0547 1.3594-3.8672 3.5391-4.7344 4.4219-1.7617 8.1758-4.7852 10.855-8.7422 2.7578-4.0547 4.1797-8.793 4.1055-13.715-0.089844-6.1445-2.582-11.977-7.0391-16.426-4.457-4.4453-10.289-6.9531-16.426-7.0391-6.4219-0.089843-12.48 2.3438-17.055 6.8516-4.5625 4.5195-7.0781 10.543-7.0781 16.965 0 2.9219 2.3672 5.2891 5.2891 5.2891s5.2891-2.3672 5.2891-5.2891c0-3.5625 1.3984-6.9141 3.9414-9.4219 2.543-2.5078 5.9062-3.8555 9.4727-3.8047 6.9648 0.10156 12.934 6.0703 13.035 13.035 0.074219 5.4414-3.2617 10.453-8.3125 12.48-6.1953 2.4805-10.191 8.1875-10.191 14.559v4.8984h-47.23c-4.1953 0-8.2734 0.82031-12.141 2.418-3.8672 1.5977-7.332 3.918-10.305 6.8789l-55.734 55.734c-2.0664 2.0664-2.0664 5.4141 0 7.4805zm85.738-88.379c-11.309 0-20.793-7.9219-23.215-18.516h46.426c-2.418 10.594-11.902 18.516-23.211 18.516z"/>
  <path d="m489.93 449.64v109.06h-179.86v-105.8h63.617c2.8984 0 5.3281-2.3047 5.3789-5.2031 0.050782-2.9609-2.3438-5.3789-5.2891-5.3789h-66.805l-65.898-65.898c-2.0664-2.0664-5.4141-2.0664-7.4805 0-2.0664 2.0664-2.0664 5.4141 0 7.4805l65.898 65.898-0.003907 114.19c0 2.9219 2.3672 5.2891 5.2891 5.2891h190.44c2.9219 0 5.2891-2.3672 5.2891-5.2891v-114.19l65.898-65.898c2.0664-2.0664 2.0664-5.4141 0-7.4805s-5.4141-2.0664-7.4805 0l-66.012 66.012c-0.94531 0.94531-1.6992 2.0664-2.2031 3.3008-0.51953 1.2305-0.78125 2.5664-0.78125 3.9023z"/>
  <path d="m402.64 537.54h27.383c4.3828 0 8.5781-2.0898 11.211-5.6055l2.6953-3.6016c0.64062-0.85547 1.6758-1.3711 2.7461-1.3711l19.445-0.003907c7.293 0 13.227-5.9336 13.227-13.227v-76.703c0-7.293-5.9336-13.227-13.227-13.227h-23.805c-5.5938 0-10.391 3.5-12.316 8.4141-1.1328-0.31641-2.3164-0.48047-3.5508-0.48047h-23.805c-7.293 0-13.227 5.9336-13.227 13.227v79.352c-0.003906 7.293 5.9297 13.227 13.223 13.227zm-2.6445-92.574c0-1.4609 1.1836-2.6445 2.6445-2.6445h23.805c1.4609 0 2.6445 1.1836 2.6445 2.6445v37.031c0 2.9219 2.3672 5.2891 5.2891 5.2891 2.9219 0 5.2891-2.3672 5.2891-5.2891v-44.965c0-1.4609 1.1836-2.6445 2.6445-2.6445h23.805c1.4609 0 2.6445 1.1836 2.6445 2.6445v76.703c0 1.4609-1.1836 2.6445-2.6445 2.6445h-19.445c-4.3828 0-8.5781 2.0898-11.211 5.6055l-2.6953 3.6016c-0.64062 0.85547-1.6758 1.3711-2.7461 1.3711h-27.379c-1.4609 0-2.6445-1.1836-2.6445-2.6445z"/>
 </g>
</svg>